<svg width="67" xmlns="http://www.w3.org/2000/svg" height="67" id="screenshot-fa962b2a-c4a4-8068-8005-f79e6610fbea" viewBox="0 0 67 67" xmlns:xlink="http://www.w3.org/1999/xlink" fill="none" version="1.1"><style>@font-face {
    font-family: 'sourcesanspro';
    font-style: normal;
    font-weight: bold;
    font-display: block;
    src: url(http://penpot-frontend:8080/fonts/sourcesanspro-bold.woff) format('woff');
  }</style><g id="shape-fa962b2a-c4a4-8068-8005-f79e6610fbea" rx="0" ry="0"><g id="shape-fa962b2a-c4a4-8068-8005-f79e6610fbeb"><defs><clipPath id="frame-clip-fa962b2a-c4a4-8068-8005-f79e6610fbeb-render-2" class="frame-clip frame-clip-def"><rect rx="0" ry="0" x="0" y="0" width="67" height="67" transform="matrix(1.000000, 0.000000, 0.000000, 1.000000, 0.000000, 0.000000)"/></clipPath></defs><g><g><g clip-path="url(#frame-clip-fa962b2a-c4a4-8068-8005-f79e6610fbeb-render-2)" fill="none"><g class="fills" id="fills-fa962b2a-c4a4-8068-8005-f79e6610fbeb"><rect width="67" height="67" class="frame-background" x="0" transform="matrix(1.000000, 0.000000, 0.000000, 1.000000, 0.000000, 0.000000)" style="fill: rgb(255, 255, 255); fill-opacity: 1;" ry="0" rx="0" y="0"/></g><g class="frame-children"><g id="shape-fa962b2a-c4a4-8068-8005-f79e6610fbec"><g class="fills" id="fills-fa962b2a-c4a4-8068-8005-f79e6610fbec"><rect rx="0" ry="0" x="4.5886057306497605" y="-40.120841422155536" transform="matrix(0.525226, 0.850963, -0.850963, 0.525226, 9.535261, -7.332234)" width="13.5" height="90.00000000000045" style="fill: rgb(255, 249, 125); fill-opacity: 1;"/></g></g><g id="shape-fa962b2a-c4a4-8068-8005-f79e6610fbed"><g class="fills" id="fills-fa962b2a-c4a4-8068-8005-f79e6610fbed"><rect rx="0" ry="0" x="16.257750794746244" y="-29.131656292244315" transform="matrix(0.525226, 0.850963, -0.850963, 0.525226, 25.257715, -13.534047)" width="17" height="89.99999999999955" style="fill: rgb(255, 217, 120); fill-opacity: 1;"/></g></g><g id="shape-fa962b2a-c4a4-8068-8005-f79e6610fbee"><g class="fills" id="fills-fa962b2a-c4a4-8068-8005-f79e6610fbee"><rect rx="0" ry="0" x="25.139057232474443" y="-13.418915559399466" transform="matrix(0.525226, 0.850963, -0.850963, 0.525226, 42.963984, -13.844446)" width="17.5" height="90" style="fill: rgb(255, 116, 209); fill-opacity: 1;"/></g></g><g id="shape-fa962b2a-c4a4-8068-8005-f79e6610fbef"><g class="fills" id="fills-fa962b2a-c4a4-8068-8005-f79e6610fbef"><rect rx="0" ry="0" x="33.876444357018045" y="2.6556029749099253" transform="matrix(0.525226, 0.850963, -0.850963, 0.525226, 60.553703, -13.222389)" width="16.50000000000091" height="90.00000000000091" style="fill: rgb(109, 219, 255); fill-opacity: 1;"/></g></g><g id="shape-fa962b2a-c4a4-8068-8005-f79e6610fbf0"><g class="fills" id="fills-fa962b2a-c4a4-8068-8005-f79e6610fbf0"><rect rx="0" ry="0" x="50.376444357018045" y="12.65560297491129" transform="matrix(0.525226, 0.850963, -0.850963, 0.525226, 76.897107, -22.515535)" width="16.5" height="90" style="fill: rgb(178, 118, 255); fill-opacity: 1;"/></g></g><g id="shape-fa962b2a-c4a4-8068-8005-f79e6610fbf1" style="display: none;"><g transform="matrix(1.000000, 0.000000, 0.000000, 1.000000, 0.000000, 0.000000)" class="text-container" x="0" y="0" width="67" height="67" rx="0" ry="0"><defs><pattern patternUnits="userSpaceOnUse" x="0" y="0" width="49.28125" height="49" id="fill-0-render-8-0"><g><rect width="49.28125" height="49" style="fill: rgb(255, 255, 255); fill-opacity: 1;"/></g></pattern></defs><g class="fills" id="fills-fa962b2a-c4a4-8068-8005-f79e6610fbf1"><text x="8.859375" y="57.90625" dominant-baseline="ideographic" textLength="49.28125" lengthAdjust="spacingAndGlyphs" style="text-transform: none; font-family: sourcesanspro; letter-spacing: normal; font-style: normal; font-weight: 700; white-space: pre; font-size: 36px; text-decoration: none solid rgb(255, 255, 255); direction: ltr; fill: rgb(255, 255, 255); fill-opacity: 1;">SW</text></g></g></g><g id="shape-19db965a-7a88-809c-8005-f888e9d1099f"><g class="fills" id="fills-19db965a-7a88-809c-8005-f888e9d1099f"><path d="M11.500,39.000C11.500,39.000,18.500,44.500,24.000,39.500C29.000,32.000,17.541,32.041,14.500,29.000C12.500,27.000,13.500,23.000,17.000,22.000C21.966,20.581,25.500,24.000,25.500,24.000M18.000,21.500"/></g><g id="strokes-19db965a-7a88-809c-8005-f888e9d1099f" class="strokes"><g class="stroke-shape"><path d="M11.500,39.000C11.500,39.000,18.500,44.500,24.000,39.500C29.000,32.000,17.541,32.041,14.500,29.000C12.500,27.000,13.500,23.000,17.000,22.000C21.966,20.581,25.500,24.000,25.500,24.000M18.000,21.500" style="fill: none; stroke-width: 5; stroke: rgb(255, 255, 255); stroke-opacity: 1;"/></g></g></g><g id="shape-19db965a-7a88-809c-8005-f889b3cab77c"><g class="fills" id="fills-19db965a-7a88-809c-8005-f889b3cab77c"><path d="M31.500,20.000L31.998,22.537L37.000,43.000L42.500,22.500L44.500,22.500L50.000,43.000L55.500,20.000"/></g><g id="strokes-19db965a-7a88-809c-8005-f889b3cab77c" class="strokes"><g class="stroke-shape"><path d="M31.500,20.000L31.998,22.537L37.000,43.000L42.500,22.500L44.500,22.500L50.000,43.000L55.500,20.000" style="fill: none; stroke-width: 5; stroke: rgb(255, 255, 255); stroke-opacity: 1;"/></g></g></g></g></g></g></g></g></g></svg>